<svg id="svg" version="1.1" xmlns="http://www.w3.org/2000/svg" xmlns:xlink="http://www.w3.org/1999/xlink" width="400" height="400" viewBox="0, 0, 400,400"><g id="svgg"><path id="path0" d="M27.666 139.490 C 24.869 140.149,22.536 142.074,21.230 144.800 L 20.400 146.533 20.267 165.467 C 20.099 189.338,20.119 189.449,25.008 191.637 L 26.415 192.267 51.008 192.265 C 66.278 192.264,75.957 192.164,76.543 192.002 C 79.094 191.293,81.451 188.784,82.055 186.133 C 82.659 183.484,82.087 146.454,81.420 145.010 C 80.161 142.286,77.857 140.324,75.077 139.609 C 73.267 139.143,29.601 139.033,27.666 139.490 M40.172 158.823 C 43.595 160.939,44.074 165.552,41.158 168.319 C 38.329 171.004,33.507 170.158,31.747 166.667 C 29.022 161.259,35.044 155.652,40.172 158.823 M67.941 158.554 C 71.797 160.476,72.540 165.363,69.424 168.319 C 66.595 171.004,61.774 170.158,60.014 166.667 C 57.415 161.509,62.804 155.994,67.941 158.554 M59.450 176.913 C 60.461 178.132,58.682 181.291,56.267 182.564 C 54.906 183.282,48.183 183.292,46.336 182.579 C 44.095 181.714,42.158 178.516,42.963 177.011 C 43.312 176.359,58.913 176.266,59.450 176.913 " stroke="none" fill="#dcdcdc" fill-rule="evenodd"></path><path id="path1" d="M48.594 122.698 C 44.734 124.608,44.208 129.363,47.505 132.536 C 49.325 134.289,49.600 134.920,49.600 137.351 L 49.600 139.200 51.333 139.200 L 53.067 139.200 53.068 137.533 C 53.070 135.021,53.445 134.022,54.817 132.876 C 60.284 128.306,54.935 119.559,48.594 122.698 M105.333 166.133 L 105.333 193.067 120.133 193.067 L 134.933 193.067 134.933 192.267 L 134.933 191.467 121.067 191.467 L 107.200 191.467 107.200 178.667 L 107.200 165.867 119.600 165.867 L 132.000 165.867 132.000 164.933 L 132.000 164.000 119.600 164.000 L 107.200 164.000 107.200 152.533 L 107.200 141.067 120.667 141.067 L 134.133 141.067 134.133 140.133 L 134.133 139.200 119.733 139.200 L 105.333 139.200 105.333 166.133 M146.667 166.133 L 146.667 193.067 147.599 193.067 L 148.531 193.067 148.599 168.005 L 148.667 142.944 166.946 167.939 C 184.070 191.353,185.279 192.939,186.079 193.017 L 186.933 193.100 186.933 166.150 L 186.933 139.200 186.001 139.200 L 185.069 139.200 185.001 164.330 L 184.933 189.459 166.576 164.330 C 149.504 140.958,148.165 139.200,147.443 139.200 L 146.667 139.200 146.667 166.133 M197.333 139.453 C 197.333 139.718,202.232 151.350,214.744 180.800 C 219.876 192.877,219.903 192.933,220.683 192.933 L 221.467 192.933 232.455 166.267 C 244.911 136.038,243.759 139.143,242.481 139.251 L 241.495 139.333 231.092 164.695 L 220.688 190.057 209.976 164.695 L 199.263 139.333 198.298 139.251 C 197.740 139.203,197.333 139.288,197.333 139.453 M254.133 166.267 L 254.133 193.067 265.347 193.067 C 280.053 193.067,281.688 192.715,285.758 188.677 C 293.021 181.471,289.995 167.247,280.704 164.919 C 279.950 164.730,279.958 164.718,281.473 163.905 C 290.406 159.112,290.534 145.576,281.688 141.111 C 278.545 139.525,277.974 139.467,265.495 139.467 L 254.133 139.467 254.133 166.267 M356.267 145.600 L 356.267 151.733 351.467 151.733 L 346.667 151.733 346.667 152.400 L 346.667 153.067 351.457 153.067 L 356.247 153.067 356.323 168.867 L 356.400 184.667 357.019 186.201 C 358.998 191.100,362.087 192.836,369.133 193.010 L 373.600 193.120 373.600 192.294 L 373.600 191.467 370.467 191.462 C 363.626 191.452,360.316 189.653,358.542 184.981 C 358.047 183.677,358.013 182.746,357.928 168.333 L 357.839 153.067 365.586 153.067 L 373.333 153.067 373.333 152.400 L 373.333 151.733 365.600 151.733 L 357.867 151.733 357.867 145.600 L 357.867 139.467 357.067 139.467 L 356.267 139.467 356.267 145.600 M277.097 141.331 C 288.067 143.352,289.887 157.968,279.766 162.763 L 278.000 163.600 267.000 163.678 L 256.000 163.756 256.000 152.411 L 256.000 141.067 265.830 141.067 C 271.237 141.067,276.307 141.186,277.097 141.331 M317.349 150.957 C 293.857 153.997,292.429 188.616,315.600 193.372 C 329.861 196.299,341.678 186.872,341.720 172.533 C 341.762 158.567,331.149 149.171,317.349 150.957 M325.733 153.193 C 343.867 158.002,345.189 184.189,327.631 190.798 C 314.261 195.830,300.943 186.585,300.935 172.267 C 300.928 158.847,312.754 149.751,325.733 153.193 M14.899 156.449 C 13.348 157.412,13.333 157.514,13.335 167.508 C 13.337 179.032,13.289 178.909,17.800 178.925 L 20.267 178.933 20.267 167.467 L 20.267 156.000 17.933 156.007 C 16.250 156.012,15.405 156.135,14.899 156.449 M82.333 156.154 C 82.086 156.403,82.075 164.179,82.309 172.757 L 82.485 179.200 84.243 179.185 C 89.026 179.144,89.067 179.044,89.067 167.423 L 89.067 158.126 88.154 157.129 C 87.248 156.140,83.047 155.437,82.333 156.154 M35.645 158.255 C 29.508 159.874,29.914 168.815,36.166 169.752 C 41.874 170.608,45.315 163.349,40.998 159.559 C 39.489 158.234,37.532 157.758,35.645 158.255 M62.800 158.639 C 57.353 161.161,58.937 169.268,64.975 169.778 C 71.285 170.311,73.637 161.251,67.869 158.631 C 66.472 157.996,64.180 158.000,62.800 158.639 M278.688 166.089 C 289.176 168.827,291.472 183.019,282.396 189.008 C 279.293 191.055,279.382 191.043,267.000 191.138 L 256.000 191.222 256.000 178.411 L 256.000 165.600 266.467 165.615 C 275.468 165.629,277.179 165.695,278.688 166.089 M42.933 177.760 C 42.933 181.325,45.488 182.919,51.214 182.927 C 56.869 182.936,59.069 181.647,59.407 178.127 L 59.535 176.800 51.234 176.800 L 42.933 176.800 42.933 177.760 M93.397 204.356 C 90.486 205.412,89.515 207.244,89.382 211.933 L 89.281 215.467 88.374 215.467 C 87.584 215.467,87.467 215.553,87.467 216.133 C 87.467 216.717,87.582 216.800,88.400 216.800 L 89.333 216.800 89.333 221.200 L 89.333 225.600 88.400 225.600 C 87.582 225.600,87.467 225.683,87.467 226.267 L 87.467 226.933 90.533 226.933 L 93.600 226.933 93.600 226.267 C 93.600 225.636,93.520 225.600,92.133 225.600 L 90.667 225.600 90.667 221.200 L 90.667 216.800 92.667 216.800 C 94.622 216.800,94.667 216.785,94.667 216.133 C 94.667 215.480,94.625 215.467,92.629 215.467 L 90.592 215.467 90.725 212.464 C 90.911 208.242,91.983 206.373,94.679 205.565 C 95.517 205.314,95.733 205.121,95.733 204.624 C 95.733 203.905,94.904 203.809,93.397 204.356 M130.667 204.667 C 130.667 205.279,130.764 205.333,131.867 205.333 L 133.067 205.333 133.067 215.467 L 133.067 225.600 131.867 225.600 C 130.764 225.600,130.667 225.654,130.667 226.267 L 130.667 226.933 133.733 226.933 L 136.800 226.933 136.800 226.267 C 136.800 225.667,136.693 225.600,135.733 225.600 L 134.667 225.600 134.667 222.653 C 134.667 218.664,135.303 217.562,138.030 216.828 C 140.830 216.074,141.600 217.187,141.600 221.991 L 141.600 225.600 140.400 225.600 C 139.298 225.600,139.200 225.654,139.200 226.267 L 139.200 226.933 142.267 226.933 L 145.333 226.933 145.333 226.267 C 145.333 225.667,145.227 225.600,144.267 225.600 L 143.200 225.600 143.200 221.639 C 143.200 217.958,143.157 217.615,142.592 216.777 C 141.162 214.655,137.591 214.632,135.400 216.731 L 134.667 217.433 134.667 210.717 L 134.667 204.000 132.667 204.000 C 130.711 204.000,130.667 204.015,130.667 204.667 M153.200 204.397 C 150.571 205.319,149.370 207.697,149.136 212.445 L 148.987 215.467 148.227 215.467 C 147.594 215.467,147.467 215.578,147.467 216.133 C 147.467 216.696,147.591 216.800,148.267 216.800 L 149.067 216.800 149.067 221.200 L 149.067 225.600 148.267 225.600 C 147.591 225.600,147.467 225.704,147.467 226.267 L 147.467 226.933 150.533 226.933 L 153.600 226.933 153.600 226.267 C 153.600 225.636,153.520 225.600,152.133 225.600 L 150.667 225.600 150.667 221.200 L 150.667 216.800 152.533 216.800 C 154.347 216.800,154.400 216.781,154.400 216.133 C 154.400 215.485,154.349 215.467,152.500 215.467 L 150.601 215.467 150.713 212.315 C 150.869 207.942,151.737 206.446,154.619 205.583 C 155.515 205.314,155.733 205.126,155.733 204.624 C 155.733 203.878,154.896 203.803,153.200 204.397 M173.067 204.667 C 173.067 205.267,173.173 205.333,174.133 205.333 L 175.200 205.333 175.200 215.467 L 175.200 225.600 174.133 225.600 C 173.173 225.600,173.067 225.667,173.067 226.267 L 173.067 226.933 176.133 226.933 L 179.200 226.933 179.200 226.267 C 179.200 225.654,179.102 225.600,178.000 225.600 L 176.800 225.600 176.800 214.800 L 176.800 204.000 174.933 204.000 C 173.120 204.000,173.067 204.019,173.067 204.667 M369.600 204.667 C 369.600 205.267,369.707 205.333,370.667 205.333 L 371.733 205.333 371.733 211.195 L 371.733 217.056 370.529 216.207 C 366.454 213.334,361.067 216.336,361.067 221.480 C 361.067 226.471,367.619 229.163,371.267 225.669 L 372.000 224.967 372.000 225.950 L 372.000 226.933 373.733 226.933 C 375.404 226.933,375.467 226.909,375.467 226.267 C 375.467 225.667,375.360 225.600,374.400 225.600 L 373.333 225.600 373.333 214.800 L 373.333 204.000 371.467 204.000 C 369.653 204.000,369.600 204.019,369.600 204.667 M123.733 211.733 L 123.733 215.467 122.400 215.467 C 121.156 215.467,121.067 215.511,121.067 216.133 C 121.067 216.756,121.156 216.800,122.400 216.800 L 123.733 216.800 123.733 221.867 L 123.733 226.933 125.733 226.933 C 127.689 226.933,127.733 226.919,127.733 226.267 C 127.733 225.654,127.636 225.600,126.533 225.600 L 125.333 225.600 125.333 221.200 L 125.333 216.800 127.067 216.800 C 128.738 216.800,128.800 216.776,128.800 216.133 C 128.800 215.491,128.738 215.467,127.067 215.467 L 125.333 215.467 125.333 211.733 L 125.333 208.000 124.533 208.000 L 123.733 208.000 123.733 211.733 M235.200 211.733 L 235.200 215.467 233.867 215.467 C 232.622 215.467,232.533 215.511,232.533 216.133 C 232.533 216.756,232.622 216.800,233.867 216.800 L 235.200 216.800 235.200 221.867 L 235.200 226.933 237.200 226.933 C 239.156 226.933,239.200 226.919,239.200 226.267 C 239.200 225.654,239.102 225.600,238.000 225.600 L 236.800 225.600 236.800 221.200 L 236.800 216.800 238.533 216.800 C 240.204 216.800,240.267 216.776,240.267 216.133 C 240.267 215.491,240.204 215.467,238.533 215.467 L 236.800 215.467 236.800 211.733 L 236.800 208.000 236.000 208.000 L 235.200 208.000 235.200 211.733 M287.733 211.733 L 287.733 215.467 286.400 215.467 C 285.156 215.467,285.067 215.511,285.067 216.133 C 285.067 216.756,285.156 216.800,286.400 216.800 L 287.733 216.800 287.733 221.867 L 287.733 226.933 289.733 226.933 C 291.689 226.933,291.733 226.919,291.733 226.267 C 291.733 225.654,291.636 225.600,290.533 225.600 L 289.333 225.600 289.333 221.200 L 289.333 216.800 291.067 216.800 C 292.738 216.800,292.800 216.776,292.800 216.133 C 292.800 215.491,292.738 215.467,291.067 215.467 L 289.333 215.467 289.333 211.733 L 289.333 208.000 288.533 208.000 L 287.733 208.000 287.733 211.733 M115.304 210.781 C 114.985 211.610,115.319 212.398,116.023 212.480 C 116.902 212.582,117.444 211.946,117.225 211.070 C 117.033 210.306,115.570 210.086,115.304 210.781 M40.133 215.982 C 34.757 219.114,36.970 227.169,43.214 227.194 C 47.502 227.211,50.286 223.374,49.029 219.179 C 47.977 215.669,43.458 214.045,40.133 215.982 M73.832 215.735 C 73.300 216.016,72.550 216.620,72.166 217.077 L 71.467 217.908 71.467 216.687 L 71.467 215.467 69.733 215.467 C 68.062 215.467,68.000 215.491,68.000 216.133 C 68.000 216.733,68.107 216.800,69.067 216.800 L 70.133 216.800 70.133 221.200 L 70.133 225.600 68.933 225.600 C 67.831 225.600,67.733 225.654,67.733 226.267 L 67.733 226.933 70.800 226.933 L 73.867 226.933 73.867 226.267 C 73.867 225.667,73.760 225.600,72.800 225.600 L 71.733 225.600 71.733 222.653 C 71.733 218.649,72.366 217.563,75.136 216.817 C 76.077 216.564,76.267 216.403,76.267 215.856 C 76.267 215.027,75.266 214.977,73.832 215.735 M100.400 215.570 C 95.491 217.715,95.568 224.791,100.523 226.867 C 102.117 227.535,104.804 227.221,106.256 226.197 L 107.467 225.344 107.467 226.139 L 107.467 226.933 109.333 226.933 C 111.147 226.933,111.200 226.914,111.200 226.267 C 111.200 225.667,111.093 225.600,110.133 225.600 L 109.067 225.600 109.067 220.533 L 109.067 215.467 108.430 215.467 C 107.914 215.467,107.760 215.643,107.620 216.390 C 107.449 217.300,107.439 217.306,106.934 216.801 C 105.457 215.324,102.318 214.732,100.400 215.570 M219.867 215.570 C 214.958 217.715,215.034 224.791,219.989 226.867 C 221.583 227.535,224.270 227.221,225.723 226.197 L 226.933 225.344 226.933 226.139 L 226.933 226.933 228.800 226.933 C 230.613 226.933,230.667 226.914,230.667 226.267 C 230.667 225.667,230.560 225.600,229.600 225.600 L 228.533 225.600 228.533 220.533 L 228.533 215.467 227.896 215.467 C 227.381 215.467,227.226 215.643,227.086 216.390 C 226.915 217.300,226.906 217.306,226.401 216.801 C 224.924 215.324,221.785 214.732,219.867 215.570 M245.301 215.945 C 239.928 218.752,241.756 226.763,247.858 227.151 C 250.569 227.324,253.010 225.962,251.928 224.880 C 251.557 224.509,251.455 224.512,250.891 224.908 C 249.075 226.184,246.700 225.953,245.091 224.345 L 244.150 223.404 248.809 221.544 C 254.257 219.369,253.758 219.691,253.322 218.640 C 252.007 215.465,248.485 214.282,245.301 215.945 M261.662 215.763 C 261.037 216.073,260.290 216.625,260.003 216.990 L 259.481 217.653 259.307 216.560 L 259.132 215.467 257.433 215.467 C 255.798 215.467,255.733 215.492,255.733 216.133 C 255.733 216.733,255.840 216.800,256.800 216.800 L 257.867 216.800 257.867 221.200 L 257.867 225.600 256.800 225.600 C 255.840 225.600,255.733 225.667,255.733 226.267 L 255.733 226.933 258.800 226.933 L 261.867 226.933 261.867 226.267 C 261.867 225.654,261.769 225.600,260.667 225.600 L 259.467 225.600 259.467 222.925 C 259.467 219.015,260.389 217.446,263.089 216.766 C 264.069 216.520,264.267 216.363,264.267 215.835 C 264.267 215.006,263.250 214.978,261.662 215.763 M277.838 215.584 C 275.099 217.132,275.775 220.368,279.092 221.586 C 281.754 222.564,282.403 223.513,281.337 224.868 C 280.227 226.279,277.531 226.084,277.383 224.582 C 277.230 223.031,275.733 223.344,275.733 224.927 C 275.733 227.714,281.452 228.206,282.832 225.538 C 283.982 223.315,283.149 221.578,280.398 220.463 C 277.744 219.388,277.102 218.375,278.354 217.241 C 279.394 216.300,281.600 216.745,281.600 217.895 C 281.600 218.540,281.709 218.667,282.267 218.667 C 283.285 218.667,283.260 216.493,282.234 215.821 C 281.299 215.208,278.746 215.071,277.838 215.584 M297.835 215.945 C 292.462 218.752,294.290 226.763,300.391 227.151 C 303.103 227.324,305.543 225.962,304.461 224.880 C 304.090 224.509,303.988 224.512,303.425 224.908 C 301.609 226.184,299.233 225.953,297.625 224.345 L 296.684 223.404 301.342 221.544 C 306.790 219.369,306.291 219.691,305.856 218.640 C 304.541 215.465,301.018 214.282,297.835 215.945 M337.394 215.764 C 332.716 218.080,333.190 225.421,338.113 226.896 C 340.395 227.579,342.843 227.097,344.333 225.669 L 345.067 224.967 345.067 225.950 L 345.067 226.933 346.800 226.933 C 348.471 226.933,348.533 226.909,348.533 226.267 C 348.533 225.667,348.427 225.600,347.467 225.600 L 346.400 225.600 346.400 220.533 L 346.400 215.467 345.733 215.467 C 345.130 215.467,345.067 215.571,345.067 216.569 L 345.067 217.672 344.532 216.993 C 343.160 215.248,339.656 214.645,337.394 215.764 M356.600 215.761 C 355.977 216.070,355.167 216.679,354.800 217.115 L 354.133 217.908 354.133 216.687 L 354.133 215.467 352.400 215.467 C 350.729 215.467,350.667 215.491,350.667 216.133 C 350.667 216.733,350.773 216.800,351.733 216.800 L 352.800 216.800 352.800 221.200 L 352.800 225.600 351.600 225.600 C 350.498 225.600,350.400 225.654,350.400 226.267 L 350.400 226.933 353.467 226.933 L 356.533 226.933 356.533 226.267 C 356.533 225.667,356.427 225.600,355.467 225.600 L 354.400 225.600 354.400 222.774 C 354.400 218.743,355.097 217.563,357.933 216.786 C 358.483 216.636,358.933 216.407,358.933 216.278 C 358.933 216.149,359.006 215.854,359.095 215.622 C 359.335 214.998,357.992 215.073,356.600 215.761 M18.667 216.133 C 18.667 216.746,18.765 216.800,19.865 216.800 L 21.064 216.800 23.628 221.923 L 26.193 227.047 24.639 230.190 L 23.084 233.333 21.809 233.333 C 20.626 233.333,20.533 233.382,20.533 234.000 L 20.533 234.667 23.600 234.667 L 26.667 234.667 26.667 234.016 C 26.667 233.467,26.522 233.353,25.737 233.283 L 24.807 233.200 28.852 225.000 L 32.896 216.800 34.048 216.800 C 35.099 216.800,35.200 216.742,35.200 216.133 L 35.200 215.467 32.400 215.467 L 29.600 215.467 29.600 216.133 C 29.600 216.700,29.723 216.800,30.422 216.800 C 30.874 216.800,31.202 216.890,31.150 217.000 C 31.097 217.110,30.152 219.023,29.048 221.250 L 27.042 225.300 24.988 221.181 C 22.604 216.402,22.718 216.800,23.733 216.800 C 24.409 216.800,24.533 216.696,24.533 216.133 L 24.533 215.467 21.600 215.467 L 18.667 215.467 18.667 216.133 M51.200 216.133 C 51.200 216.746,51.298 216.800,52.400 216.800 L 53.600 216.800 53.600 220.826 C 53.600 224.073,53.684 224.994,54.036 225.589 C 55.326 227.773,59.099 227.806,61.400 225.653 C 62.106 224.992,62.133 224.988,62.133 225.528 C 62.133 226.769,62.370 226.933,64.162 226.933 C 65.803 226.933,65.867 226.908,65.867 226.267 C 65.867 225.667,65.760 225.600,64.800 225.600 L 63.733 225.600 63.733 220.533 L 63.733 215.467 61.867 215.467 C 60.053 215.467,60.000 215.486,60.000 216.133 C 60.000 216.733,60.107 216.800,61.067 216.800 L 62.133 216.800 62.133 219.671 C 62.133 223.682,61.169 225.171,58.215 225.725 C 55.715 226.194,54.934 224.690,54.934 219.400 L 54.933 215.467 53.067 215.467 C 51.253 215.467,51.200 215.486,51.200 216.133 M113.067 216.133 C 113.067 216.746,113.164 216.800,114.267 216.800 L 115.467 216.800 115.467 221.200 L 115.467 225.600 114.267 225.600 C 113.164 225.600,113.067 225.654,113.067 226.267 L 113.067 226.933 116.133 226.933 L 119.200 226.933 119.200 226.267 C 119.200 225.667,119.093 225.600,118.133 225.600 L 117.067 225.600 117.067 220.533 L 117.067 215.467 115.067 215.467 C 113.111 215.467,113.067 215.481,113.067 216.133 M156.533 216.133 C 156.533 216.746,156.631 216.800,157.733 216.800 L 158.933 216.800 158.933 220.826 C 158.933 224.073,159.018 224.994,159.369 225.589 C 160.659 227.773,164.433 227.806,166.733 225.653 C 167.439 224.992,167.467 224.988,167.467 225.528 C 167.467 226.769,167.703 226.933,169.495 226.933 C 171.136 226.933,171.200 226.908,171.200 226.267 C 171.200 225.667,171.093 225.600,170.133 225.600 L 169.067 225.600 169.067 220.533 L 169.067 215.467 167.200 215.467 C 165.387 215.467,165.333 215.486,165.333 216.133 C 165.333 216.733,165.440 216.800,166.400 216.800 L 167.467 216.800 167.467 219.671 C 167.467 223.682,166.503 225.171,163.548 225.725 C 161.048 226.194,160.268 224.690,160.267 219.400 L 160.267 215.467 158.400 215.467 C 156.587 215.467,156.533 215.486,156.533 216.133 M190.400 216.133 C 190.400 216.740,190.502 216.800,191.536 216.800 L 192.673 216.800 195.408 222.279 C 196.913 225.293,198.232 227.703,198.339 227.636 C 198.446 227.568,199.370 225.823,200.392 223.757 C 201.415 221.690,202.318 220.000,202.400 220.000 C 202.482 220.000,203.385 221.690,204.408 223.757 C 205.430 225.823,206.354 227.568,206.461 227.636 C 206.568 227.703,207.887 225.293,209.392 222.279 L 212.127 216.800 213.264 216.800 C 214.298 216.800,214.400 216.740,214.400 216.133 L 214.400 215.467 211.600 215.467 L 208.800 215.467 208.800 216.133 C 208.800 216.696,208.924 216.800,209.600 216.800 C 210.594 216.800,210.723 216.313,208.491 220.960 L 206.582 224.933 204.672 220.933 L 202.762 216.933 203.647 216.851 C 204.386 216.782,204.533 216.660,204.533 216.117 C 204.533 215.467,204.532 215.467,201.600 215.467 C 198.668 215.467,198.667 215.467,198.667 216.117 C 198.667 216.675,198.808 216.780,199.658 216.851 C 201.461 217.001,201.474 218.338,199.709 221.916 L 198.278 224.816 196.353 221.008 C 194.112 216.574,194.173 216.800,195.200 216.800 C 195.876 216.800,196.000 216.696,196.000 216.133 L 196.000 215.467 193.200 215.467 L 190.400 215.467 190.400 216.133 M308.267 216.133 C 308.267 216.740,308.369 216.800,309.403 216.800 L 310.539 216.800 313.275 222.279 C 314.780 225.293,316.098 227.703,316.205 227.636 C 316.312 227.568,317.237 225.823,318.259 223.757 C 319.282 221.690,320.185 220.000,320.267 220.000 C 320.348 220.000,321.252 221.690,322.274 223.757 C 323.297 225.823,324.221 227.568,324.328 227.636 C 324.435 227.703,325.754 225.293,327.258 222.279 L 329.994 216.800 331.130 216.800 C 332.165 216.800,332.267 216.740,332.267 216.133 L 332.267 215.467 329.467 215.467 L 326.667 215.467 326.667 216.133 C 326.667 216.696,326.791 216.800,327.467 216.800 C 328.460 216.800,328.590 216.313,326.358 220.960 L 324.448 224.933 322.538 220.933 L 320.628 216.933 321.514 216.851 C 322.253 216.782,322.400 216.660,322.400 216.117 C 322.400 215.467,322.398 215.467,319.467 215.467 C 316.535 215.467,316.533 215.467,316.533 216.117 C 316.533 216.675,316.674 216.780,317.525 216.851 C 319.328 217.001,319.341 218.338,317.575 221.916 L 316.145 224.816 314.220 221.008 C 311.978 216.574,312.040 216.800,313.067 216.800 C 313.742 216.800,313.867 216.696,313.867 216.133 L 313.867 215.467 311.067 215.467 L 308.267 215.467 308.267 216.133 M44.964 217.043 C 49.393 219.055,48.039 225.694,43.200 225.694 C 38.361 225.694,37.007 219.055,41.436 217.043 C 42.039 216.769,42.833 216.545,43.200 216.545 C 43.567 216.545,44.361 216.769,44.964 217.043 M105.424 217.498 C 108.223 219.342,107.917 223.766,104.890 225.203 C 100.238 227.411,95.994 221.624,99.612 218.005 C 101.226 216.392,103.450 216.198,105.424 217.498 M224.890 217.498 C 227.690 219.342,227.384 223.766,224.357 225.203 C 219.704 227.411,215.461 221.624,219.079 218.005 C 220.693 216.392,222.917 216.198,224.890 217.498 M249.860 217.133 C 251.060 217.747,251.832 218.643,251.333 218.841 C 242.997 222.162,243.484 222.080,243.853 220.115 C 244.350 217.465,247.476 215.914,249.860 217.133 M302.393 217.133 C 303.593 217.747,304.366 218.643,303.867 218.841 C 295.531 222.162,296.017 222.080,296.386 220.115 C 296.883 217.465,300.009 215.914,302.393 217.133 M341.799 216.944 C 344.404 218.032,345.497 220.788,344.274 223.185 C 342.896 225.886,339.636 226.564,337.336 224.628 C 333.462 221.368,337.158 215.004,341.799 216.944 M368.732 216.944 C 371.337 218.032,372.430 220.788,371.207 223.185 C 369.830 225.886,366.570 226.564,364.269 224.628 C 360.395 221.368,364.091 215.004,368.732 216.944 " stroke="none" fill="#fcfcfc" fill-rule="evenodd"></path><path id="path2" d="M34.333 139.133 C 37.157 139.176,41.777 139.176,44.600 139.133 C 47.423 139.090,45.113 139.054,39.467 139.054 C 33.820 139.054,31.510 139.090,34.333 139.133 M58.084 139.133 C 60.917 139.176,65.477 139.176,68.218 139.133 C 70.958 139.090,68.640 139.054,63.067 139.054 C 57.493 139.054,55.251 139.090,58.084 139.133 M20.106 152.267 C 20.106 154.393,20.147 155.263,20.198 154.200 C 20.249 153.137,20.249 151.397,20.198 150.333 C 20.147 149.270,20.106 150.140,20.106 152.267 M64.867 158.050 C 65.123 158.118,65.543 158.118,65.800 158.050 C 66.057 157.983,65.847 157.929,65.333 157.929 C 64.820 157.929,64.610 157.983,64.867 158.050 M82.241 174.800 C 82.242 177.147,82.282 178.071,82.332 176.854 C 82.381 175.637,82.381 173.717,82.331 172.587 C 82.281 171.458,82.241 172.453,82.241 174.800 M47.267 176.733 C 49.430 176.778,52.970 176.778,55.133 176.733 C 57.297 176.688,55.527 176.651,51.200 176.651 C 46.873 176.651,45.103 176.688,47.267 176.733 " stroke="none" fill="#ececec" fill-rule="evenodd"></path><path id="path3" d="M82.239 152.267 C 82.239 154.393,82.281 155.263,82.331 154.200 C 82.382 153.137,82.382 151.397,82.331 150.333 C 82.281 149.270,82.239 150.140,82.239 152.267 M20.095 181.200 C 20.094 182.520,20.139 183.094,20.195 182.475 C 20.251 181.856,20.251 180.776,20.196 180.075 C 20.141 179.374,20.095 179.880,20.095 181.200 M49.667 183.130 C 50.510 183.183,51.890 183.183,52.733 183.130 C 53.577 183.077,52.887 183.034,51.200 183.034 C 49.513 183.034,48.823 183.077,49.667 183.130 " stroke="none" fill="#e4e4e4" fill-rule="evenodd"></path></g></svg>