<!-- Generator: Adobe Illustrator 18.0.0, SVG Export Plug-In  -->
<svg version="1.1"
	 xmlns="http://www.w3.org/2000/svg" xmlns:xlink="http://www.w3.org/1999/xlink" xmlns:a="http://ns.adobe.com/AdobeSVGViewerExtensions/3.0/"
	 x="0px" y="0px" width="342.2px" height="51.5px" viewBox="0 0 342.2 51.5" style="enable-background:new 0 0 342.2 51.5;"
	 xml:space="preserve">
<defs>
</defs>
<path id="path1_1_" style="fill:gold;" d="M133.4,0.3c-0.3,0.2-0.7,0.6-1,1c-0.3,0.4-1.1,1.3-1.8,2c-1.8,1.9-2.7,3.2-3.6,5.2
	c-0.5,1-1.6,3-2.6,4.6c-1.7,2.8-2,3.2-4.2,5.1c-0.3,0.3-1.2,1.2-1.9,2c-0.7,0.8-2.1,2-3,2.8c-0.9,0.7-2.4,1.9-3.2,2.7
	c-0.8,0.8-1.8,1.6-2.2,1.9c-0.7,0.5-2.2,1.9-4.7,4.4c-0.7,0.7-1.6,1.5-2.2,1.8c-0.6,0.3-1.5,1.1-2.2,1.6c-0.6,0.5-1.6,1.2-2.1,1.5
	s-1.3,0.9-1.8,1.4c-0.5,0.4-1.7,1.1-2.6,1.6c-0.9,0.5-2,1-2.4,1.3s-2,0.8-3.5,1.4c-6.4,2.2-7.3,1.7-3.6-1.7c6.5-6.1,7.7-7.5,7.3-8.7
	c-0.6-2.5-2.2-3.6-3.7-2.5c-1,0.7-1.6,0.4-2.7-1.3c-1.3-2.1-3.2-2.2-6-0.4c-0.7,0.5-1.6,1-2.1,1.1c-1.4,0.5-2.7,1.4-3.5,2.3
	c-0.4,0.5-1.1,1.2-1.6,1.5c-0.9,0.8-2.5,2.8-3.1,4c-0.2,0.4-0.7,1.2-1,1.8s-0.8,1.3-1,1.8c-1.1,2.7-2.4,3.5-6,3.8
	c-0.8,0.1-1.8,0.2-2.2,0.4c-1.3,0.4-5.6,0.3-6.5-0.1c-0.9-0.5-1-1.9-0.2-3.2c0.4-0.6,3.3-3.9,3.8-4.4c0.6-0.5,1.9-2.6,2.9-4.5
	l1.1-2.1l0.1-2.6c0.1-5.7-1.3-7.1-5-5.2c-3.6,1.9-4.8,2.6-5.4,3.1c-0.9,0.7-3.4,2-3.8,2c-0.6,0-0.8-0.4-0.7-1.5
	c0.6-5.7,0.2-7.7-1.7-8.5c-1.2-0.5-4.1,0.9-6.6,3.3c-1.1,1.1-2.2,1.9-3.1,2.4c-1.7,0.9-2.7,1.8-4.3,3.5c-2.2,2.3-3.7,3.2-4.1,2.4
	c-0.3-0.5,0.7-3,1.5-4.1c1.1-1.4,3.2-5.1,3.6-6.4c0.2-0.7,0.6-1.8,0.9-2.4c1.4-3.1,0.1-8.8-2-9.5c-1.1-0.3-1.9,0-3.3,1.4
	c-0.7,0.7-1.7,1.5-2.2,1.8c-0.5,0.3-1.5,1.1-2.1,1.6c-0.6,0.5-1.5,1.2-2,1.5s-1.3,0.9-1.7,1.3c-0.4,0.4-1.2,0.9-1.6,1.2
	c-0.5,0.3-1.4,0.9-2.2,1.5c-0.7,0.6-1.7,1.2-2.1,1.5c-0.4,0.2-1.1,0.8-1.4,1.3c-0.4,0.5-1.3,1.4-2.1,2c-0.8,0.6-1.9,1.7-2.5,2.3
	c-0.6,0.6-1.7,1.6-2.4,2.2C3,26.9,2.2,27.6,2,27.9c-0.2,0.3-0.7,1-1.2,1.6c-1.8,2.4-0.4,5.9,1.7,4.4c1-0.7,3.7-3.6,4.3-4.6
	c0.7-1.2,2.3-2.9,4-4.1c1.2-0.9,3.4-2.8,4.2-3.7c1.1-1.3,1.5-1.6,2.6-2.1c1.6-0.7,3.6-2.3,5.8-4.3c2.4-2.3,3.7-3,4.6-2.4
	c1.1,0.8-0.8,6-3.2,8.9c-0.5,0.6-1.3,1.8-1.8,2.8c-0.5,1-1.1,2.1-1.3,2.4c-0.3,0.4-0.7,1.1-0.9,1.7c-0.3,0.7-0.8,1.4-1.6,2.2
	c-0.7,0.8-1.3,1.6-1.7,2.4c-0.3,0.6-1.1,2-1.8,3c-0.7,1-1.4,2.1-1.6,2.5C14,39,13.3,40,12.6,40.8c-0.6,0.9-1.5,2-1.9,2.5
	c-0.4,0.5-1.1,1.4-1.5,1.9c-0.9,1-1.1,1.6-1,2.8c0.6,3.9,3.8,4.1,6.3,0.5c0.6-0.9,1.5-2,2-2.6c1.5-1.6,3.5-4,4.9-5.9
	c0.7-1,1.7-2.1,2.1-2.6c0.4-0.5,1.2-1.5,1.8-2.3c0.7-1,1.5-1.8,2.4-2.5c0.8-0.6,2.4-2.1,3.6-3.2c2-1.9,2.3-2.2,4-3.1
	c1-0.5,2.3-1.4,2.9-1.9c1.1-1,2.3-1.6,3.2-1.7c1.2-0.2,1,0.7-0.5,2.7c-0.4,0.5-1.1,1.6-1.6,2.3c-1.3,2-3.8,5.3-4.5,6.1
	c-0.4,0.4-0.8,1.1-1.1,1.6c-0.2,0.5-0.8,1.4-1.3,2c-0.5,0.6-1.3,1.8-1.8,2.7c-0.5,0.9-1.3,2-1.8,2.6c-1.3,1.5-1.5,2.8-0.6,4.8
	c1.1,2.3,3,2.2,4.3-0.2c1.1-2,2.1-3.4,3.4-4.8c0.7-0.7,1.6-1.8,2-2.3c1.6-2,6.2-6.3,8-7.3c0.9-0.5,2.4-1.6,3.3-2.4
	c0.9-0.7,2.1-1.6,2.6-1.9c0.6-0.3,1.4-0.8,1.9-1.2c2.5-1.6,3.6,0.9,1.3,2.9c-0.5,0.4-1.2,1.1-1.5,1.7c-0.4,0.5-0.9,1.1-1.3,1.3
	c-2.9,1.8-4.3,4.5-4.5,8.5c-0.3,6.2,0.6,7.1,6.9,7.2c3.4,0,4.3-0.2,6.9-1.4c1.1-0.5,1.7-0.7,2.5-0.8l1.1-0.1l0.9,1
	c2.6,2.8,4.7,2.7,7.8-0.4c1.7-1.7,2.6-1.7,3.5-0.1c1.4,2.5,3.2,3.2,5.5,2c0.3-0.2,1.1-0.4,1.8-0.6c3.5-0.8,4.2-1,6.2-2.2
	c0.5-0.3,1.4-0.8,2.2-1.1c1.6-0.6,4.9-2.7,5.6-3.4c0.2-0.2,1-0.9,1.6-1.4c0.7-0.5,1.5-1.4,1.9-1.9c0.4-0.5,1-1.1,1.3-1.3
	c0.7-0.5,2.7-2.3,5.2-4.8c2.3-2.2,2.9-2.6,3.4-2.6c1.1,0.1,0.3,1.7-1.4,3.1c-1.6,1.2-2.1,1.7-3,3.1c-0.5,0.7-1.5,1.9-2.2,2.7
	c-2.8,2.9-3.4,4.7-2.4,6.6c0.7,1.3,2.3,3.3,2.8,3.5c2.2,1.1,10.5-2.2,13.5-5.5c0.5-0.5,1.3-1.2,1.8-1.6c0.5-0.4,1.5-1.1,2.1-1.7
	c1.3-1.1,2.9-2.4,3.1-2.4c0.5,0-0.8,2.3-2.1,3.9c-1.6,1.9-1.8,2.1-3.1,2.6c-1.4,0.5-1.9,1.1-2,2.7c-0.3,3.9,4.8,4.8,12.4,2.2
	c0.9-0.3,2.2-0.6,2.8-0.7c0.6-0.1,1.7-0.4,2.5-0.7c2.5-1,3.2-1,4,0.6c1.2,2.2,3.8,3.3,6.4,2.8c0.6-0.1,1.6-0.3,2.3-0.3
	c5.1-0.5,4.6-4.8-0.5-4.8c-2.5,0-2.8-0.9-0.8-2.9c0.7-0.7,1.5-1.8,2-2.5c0.6-1,1-1.4,1.6-1.7c2.3-1.4,3.1-2.8,2.2-4.2
	c-0.9-1.5-2.6-0.8-7.3,2.9c-2.9,2.4-5.9,3.7-13,5.9c-4,1.2-5.1,0.2-2.9-2.8c2.4-3.4,2.6-4.1,1.8-6.3c-0.5-1.2-0.5-1.6-0.5-2.9
	c0-3.2-1.5-4.4-2.9-2.2c-2.2,3.4-3.7,4.8-6.3,6.4c-0.8,0.5-1.6,1.1-1.9,1.4c-0.3,0.3-0.9,0.8-1.4,1.2c-0.5,0.4-1.4,1.1-1.9,1.6
	c-2.8,2.6-8.6,4.4-8.6,2.7c0-0.6,0.9-2.4,1.6-3.2c3.3-4.1,5.5-7.2,7.1-10.3c0.7-1.4,2.3-3.5,3.1-4.2c0.3-0.3,1-1.1,1.5-1.8
	c2.2-2.9,3.2-3.4,4.3-2.5c2.4,1.9,7.3,1.6,14.9-1c2.2-0.7,5.5-1.4,8-1.7c0.9-0.1,1.9-0.3,2.2-0.4c0.9-0.4,2.9-0.7,4-0.7
	c2.6,0,3.4-2.2,1.6-4.5c-0.9-1.2-1.5-1.2-4.7-0.2c-0.9,0.3-1.7,0.5-1.9,0.5c-0.2,0-1,0.3-1.9,0.7c-0.9,0.4-2.4,0.9-3.4,1.1
	c-1,0.2-1.9,0.4-1.9,0.5s-0.8,0.2-1.7,0.3c-0.9,0.1-1.8,0.3-2.2,0.4c-0.3,0.1-1.6,0.3-2.7,0.3c-1.1,0.1-2.4,0.2-2.7,0.3
	c-1.3,0.3-5.9,0.3-6.1,0c-0.3-0.5,1.2-3,2.8-4.6c0.6-0.6,1.1-1.4,1.6-2.4c0.4-0.9,1.2-2.2,1.8-3.1C136.7,2.9,135.9-1.2,133.4,0.3
	 M316.4,1c-2.9,0.2-6.1,1.2-8.2,2.5c-0.4,0.3-1.3,0.8-1.9,1.1c-0.6,0.3-1.6,1-2.2,1.5c-0.5,0.5-1.4,1.2-1.9,1.6
	c-2.4,1.8-4.7,5.2-5.6,8.2c-0.1,0.5-0.7,1.7-1.3,2.7c-1.2,2.1-1.5,2.8-1.9,4.6c-0.2,0.9-0.6,1.9-1,2.8c-0.4,0.8-0.9,1.9-1.1,2.5
	c-1.1,2.8-1.2,2.9-3.1,2.7c-1.8-0.2-2.5-0.1-4,0.9c-0.5,0.4-1.6,1-2.4,1.4c-3.8,2.1-8.1,6.3-8.7,8.6c-0.8,2.8,1,5.3,4.6,6.4
	c2.2,0.7,3.3,0.7,5.3-0.1c2.7-1.1,3.3-1.5,4.5-3.5c0.3-0.6,0.9-1.4,1.3-1.8c0.9-1,1.2-1.5,1.7-3.2c0.2-0.7,0.7-1.8,1-2.3
	c0.4-0.7,0.7-1.5,0.9-2.5c0.3-1.5,1.5-4.8,2.7-7.7c0.3-0.7,1-2.3,1.4-3.4c0.5-1.1,1.2-2.6,1.6-3.3c0.4-0.7,0.8-1.4,0.8-1.7
	c0.1-0.2,0.4-1.1,0.8-1.8c0.4-0.8,0.9-1.9,1.1-2.4c1.2-3.1,7.9-7.6,12.4-8.4c1.4-0.2,2.8-0.6,5.6-1.5c1.8-0.6,4.5-0.4,6.6,0.4
	c1.7,0.6,2.5,0.4,2.5-0.7C328.2,2,322.9,0.5,316.4,1 M178.1,24.8c-0.4,0.1-2.5,2.3-4.1,4.3c-0.5,0.7-1.6,1.8-2.4,2.5
	c-5.4,4.9-8.5,8.1-10.9,11.5c-0.9,1.2-0.6,3.2,0.7,4.3c1.3,1.1,1.9,1,3.6-0.6c0.7-0.6,2.4-2,3.9-3c1.5-1,3-2.1,3.5-2.5
	c0.4-0.4,1.1-0.9,1.5-1.1c0.4-0.2,1.9-1.2,3.2-2.1c1.4-0.9,2.8-1.8,3.1-2c0.4-0.2,1.2-0.7,1.9-1.1c4-2.6,4.6-1.4,1.7,2.9
	c-0.6,0.8-1.3,2-1.5,2.5c-0.5,0.9-1.7,2.4-2.1,2.4c-0.1,0-0.5,0.6-1,1.4c-0.6,0.9-1.3,1.7-1.9,2.2c-1.7,1.3-2,2.2-1.3,3.6
	c0.9,1.7,2.7,1.3,5.2-1.2c1.5-1.5,3.1-2.9,4.3-3.8c0.4-0.3,2.1-1.8,3.7-3.3c2.2-2.1,3.3-3,4.4-3.6c0.8-0.5,2-1.2,2.7-1.6
	c2.9-1.8,2.8,0.1-0.2,4.2c-2,2.7-2,6.6,0,8.6c1,1,1.5,1,3.5,0c2.5-1.2,2.8-2.2,1.2-2.9c-1.8-0.8-2.1-1.7-1-3.3
	c0.3-0.4,0.9-1.3,1.4-2c0.5-0.7,1.3-1.8,1.9-2.4c0.6-0.6,1.5-1.7,2-2.3c1.5-1.7,1.5-2.1,0.2-3.8c-1.9-2.4-4.4-2.9-7.2-1.5
	c-0.7,0.3-2.5,1.3-4.1,2.1c-3.9,2-4.5,1.8-3.3-1.1c2.1-5.2-0.9-6.8-5.6-3c-0.5,0.4-2,1.3-3.5,2c-1.4,0.7-2.9,1.4-3.3,1.7
	c-2.3,1.4-2.1,0.1,0.3-2.2C181.2,27.9,180.9,24.2,178.1,24.8 M232,25c-1.1,0.4-2.9,0.9-3.7,1.1c-0.3,0.1-1,0.4-1.5,0.7
	c-0.5,0.3-1.6,1-2.5,1.4c-1.2,0.6-2,1.1-2.8,2c-0.7,0.6-1.8,1.6-2.6,2.1c-5.2,3.4-8.3,9.5-6.4,12.6c1.3,2,2.4,2.2,5.1,1
	c5.3-2.4,5.7-2.4,6-0.4c0.4,3.1,3.1,4.2,6.6,2.7c1.9-0.8,7.3-3.7,8.8-4.7c0.7-0.5,1.8-1.1,2.5-1.4c0.7-0.3,1.5-0.7,1.8-0.9
	c1.7-1.1,2.9-1.4,2.9-0.6c0,0.5-0.2,0.8-2,2.8c-2.1,2.3-2.2,2.7-1.6,4.6c1,3.2,2.3,2.8,6.2-2.1c1.4-1.7,4-3.8,6.5-5.1
	c0.4-0.2,1.9-0.7,1.9-0.6c0,0-0.4,0.7-0.8,1.4c-2.9,4.9-1.1,8.1,4,6.9c0.8-0.2,2.3-0.5,3.4-0.7c3.8-0.7,7.4-2.9,7-4.4
	c-0.3-1.2-1.5-1.3-3.7-0.4c-0.8,0.3-1.7,0.6-1.9,0.6s-1,0.2-1.8,0.4c-2.7,0.8-2.9-0.4-0.5-2.1c4.2-2.9,5.7-7.7,3.1-10
	c-1.1-0.9-2.8-0.4-5.8,1.7c-2.7,1.9-4.5,0.9-2.6-1.6c1.2-1.6,1.1-3.4-0.2-4.2c-1.1-0.7-1.7-0.4-2.9,1.3c-1.6,2.3-4.4,4.3-9.7,7
	c-1,0.5-2.5,1.4-3.3,1.9c-1.7,1.1-5,2.8-6,3.1c-0.4,0.1-1.2,0.5-1.8,0.8c-1.5,0.8-2.8,1.2-3.5,1.3c-2.8,0.1-0.4-6.4,3.1-8.1
	c3.1-1.6,4.1-2.9,3.6-4.8c-0.2-0.5-0.3-1.4-0.3-2.2C236.4,25,234.9,23.9,232,25 M158.8,27.5c-1.3,1.5-0.3,4.6,1.4,4.2
	c0.6-0.1,1.4-1,1.6-1.5C162.2,28.6,159.7,26.5,158.8,27.5 M321.1,30.3c-0.3,0.1-0.8,0.6-1.1,1c-0.8,1.2-3.6,4-4.8,4.8
	c-1,0.7-1.8,1.3-3.5,2.8c-1,0.9-3.4,2.6-4.4,3.1c-0.5,0.2-1.1,0.3-1.8,0.3c-0.5,0-0.3-0.7,0.5-1.5c2.1-2.1,0.3-4.6-2.2-3
	c-0.5,0.3-1.5,0.9-2.2,1.3c-2.1,1.1-5.2,4.2-5.2,5.3c0,0.6,1.7,3.3,2.3,3.8c1.1,0.8,4.1,0.5,7-0.9c1.1-0.5,2.1-1,2.3-1
	c0.2-0.1,1-0.7,1.8-1.4s1.7-1.5,2-1.8c0.3-0.3,0.8-0.8,1.1-1.2c1.1-1.8,5.2-5,5.8-4.5c0.6,0.5-0.1,1.4-2.1,3c-3.1,2.4-4,4.2-3.1,6
	c0.8,1.5,1.3,1.8,3.7,2c0.9,0.1,2.1,0.2,2.6,0.3c1,0.1,2.8-0.2,6.4-1.1c2.1-0.5,2.7-0.6,5.2-0.7l2.7-0.1l1.4-0.7
	c0.8-0.4,1.8-0.7,2.3-0.9c2.2-0.5,4.2-2,4.2-3c0-1.5-1.8-2.1-4-1.4c-1.4,0.4-4.1,1-5.5,1.1c-0.6,0.1-1.7,0.3-2.5,0.6
	c-2,0.7-6,1.4-6.9,1.2c-1.4-0.3-1.4-0.9-0.1-3.8c1.1-2.4,1.2-2.9,0.7-4c-0.2-0.4-0.3-1.5-0.4-2.6C323.4,30.8,322.5,29.6,321.1,30.3
	 M230.4,30.6c0.4,0.4,0.2,0.7-1.4,2.3c-0.8,0.8-1.7,1.8-1.9,2.1c-0.9,1.1-2.9,2.7-4.7,3.9c-3,2-4.5,2.2-4.5,0.5c0-1.3,0.8-2,7.5-6.9
	C227.8,30.7,229.8,30,230.4,30.6 M302.1,30.9c-1.8,0.8-1.2,4.6,0.7,4.6c1.9,0,2.5-3.8,0.7-4.6C302.8,30.6,302.7,30.6,302.1,30.9
	 M83.2,31.3c0.8,0.5,0.5,1.6-1.2,4.3c-1.1,1.8-2.9,3.3-6.3,5.2c-2.5,1.4-4.2,1.2-3.7-0.5c0.4-1.3,4.9-6,7.7-7.8
	C81.9,30.9,82.4,30.7,83.2,31.3 M288.5,35.1c0.5,0.8,0,2.4-1.6,4.8c-2.5,3.8-7.3,5.9-9.5,4.1c-1.1-0.9,0.1-2.5,3.1-4.3
	c0.5-0.3,1.4-1,2-1.6C285.6,35.2,287.8,34.1,288.5,35.1"/>
</svg>
